<?xml version="1.0" encoding="UTF-8"?>
<svg width="244px" height="40px" viewBox="0 0 244 40" version="1.1" xmlns="http://www.w3.org/2000/svg" xmlns:xlink="http://www.w3.org/1999/xlink">
    <defs></defs>
    <g id="Page-1" stroke="none" stroke-width="1" fill="none" fill-rule="evenodd">
        <g id="Group">
            <g id="capsulerx-logo" fill-rule="nonzero">
                <path d="M19.783,20.217 L14.52,25.48 L14.52,14.52 L5.48,14.52 C2.45426045,14.5199998 0.00110428451,16.9722606 0,19.998 L0,20.003 C-1.71468692e-15,23.0295204 2.45347957,25.483 5.48,25.483 L14.517,25.483 L19.78,20.217 L19.783,20.217 Z" id="Shape" fill="#FFD300"></path>
                <path d="M19.783,20.217 L25.481,14.519 L25.481,25.479 L34.521,25.479 C37.5475204,25.479 40.001,23.0255204 40.001,19.999 C40.001,16.9724796 37.5475204,14.519 34.521,14.519 L25.49,14.519 L19.79,20.209 L19.783,20.217 Z" id="Shape" fill="#99BFBC"></path>
                <path d="M25.48,34.52 L25.48,14.518 L19.783,20.215 L14.519,25.479 L14.519,34.511 C14.519,37.5375204 16.9724796,39.991 19.999,39.991 C23.0255204,39.991 25.479,37.5375204 25.479,34.511 L25.48,34.52 Z" id="Shape" fill="#0F3C6C"></path>
                <path d="M19.783,20.217 L25.481,14.519 L25.481,5.48 C25.481,2.45347957 23.0275204,1.85320928e-16 20.001,0 C16.9744796,-1.85320928e-16 14.521,2.45347957 14.521,5.48 L14.521,25.482 L19.791,20.219 L19.783,20.217 Z" id="Shape" fill="#EF4931"></path>
            </g>
            <path d="M56.816,10.176 C51.876,10.176 46.858,14.05 46.858,21.096 C46.858,25.932 50.134,29.39 54.84,29.39 C59.208,29.39 61.964,26.842 63.238,23.8 L60.482,22.682 C59.494,24.892 57.752,26.452 55.126,26.452 C51.98,26.452 50.056,24.268 50.056,20.914 C50.056,16.546 52.734,13.114 56.582,13.114 C59.546,13.114 61.054,14.986 61.47,16.988 L64.46,16.078 C63.888,13.088 61.6,10.176 56.816,10.176 Z M71.73,18.652 C69.286,18.652 67.986,21.278 67.986,23.566 C67.986,25.412 68.948,26.66 70.69,26.66 C72.718,26.66 74.382,24.606 74.382,21.59 C74.382,19.874 73.472,18.652 71.73,18.652 Z M75.63,16.338 L78.568,16.338 L76.514,25.984 C76.358,26.764 76.254,27.544 76.254,28.376 C76.254,28.506 76.254,28.714 76.28,29 L73.472,29 C73.446,28.766 73.446,28.636 73.446,28.48 C73.446,28.168 73.446,28.012 73.498,27.44 C72.77,28.376 71.6,29.234 70.014,29.234 C66.79,29.234 64.97,26.816 64.97,23.644 C64.97,19.432 67.726,16 71.496,16 C73.758,16 74.876,17.04 75.292,17.846 L75.63,16.338 Z M87.71,18.704 C85.656,18.704 83.914,20.602 83.914,23.462 C83.914,25.516 85.058,26.66 86.774,26.66 C88.594,26.66 90.596,24.944 90.596,21.824 C90.596,19.796 89.452,18.704 87.71,18.704 Z M85.006,17.716 C85.812,16.676 87.268,16.026 88.776,16.026 C92.052,16.026 93.638,18.418 93.638,21.434 C93.638,25.932 90.882,29.338 87.008,29.338 C85.188,29.338 83.68,28.48 83.004,27.284 L81.6,33.94 L78.636,33.94 L81.912,18.522 C82.172,17.326 82.198,16.442 82.198,16.338 L85.11,16.338 C85.11,16.494 85.084,17.222 85.006,17.716 Z M94.954,25.074 C94.954,26.582 95.89,29.39 99.842,29.39 C103.17,29.39 104.626,27.128 104.626,25.308 C104.626,23.8 103.742,22.5 101.896,21.694 L100.232,20.966 C99.686,20.732 99.348,20.342 99.348,19.718 C99.348,18.938 99.998,18.288 101.064,18.288 C102.728,18.288 103.17,19.484 103.222,20.264 L105.848,19.718 C105.77,18.34 104.808,15.948 101.22,15.948 C98.334,15.948 96.488,17.924 96.488,20.108 C96.488,21.59 97.268,22.76 98.984,23.514 L100.596,24.216 C101.35,24.554 101.662,25.048 101.662,25.568 C101.662,26.296 101.09,27.024 99.868,27.024 C98.334,27.024 97.554,25.906 97.554,24.58 L94.954,25.074 Z M109.478,16.338 L107.892,23.748 C107.788,24.242 107.736,24.71 107.736,25.152 C107.736,27.57 109.218,29.286 111.87,29.286 C113.04,29.286 114.392,28.74 115.12,27.622 C115.094,27.856 115.094,28.064 115.094,28.246 C115.094,28.584 115.12,28.844 115.146,29 L118.058,29 C118.032,28.714 118.032,28.584 118.032,28.428 C118.032,27.622 118.162,26.894 118.318,26.114 L120.346,16.338 L117.382,16.338 L115.822,23.722 C115.484,25.308 114.496,26.686 112.884,26.686 C111.402,26.686 110.804,25.828 110.804,24.632 C110.804,24.32 110.856,23.982 110.934,23.618 L112.494,16.338 L109.478,16.338 Z M124.782,29 L128.786,10.176 L125.796,10.176 L121.792,29 L124.782,29 Z M132.338,21.278 L138.422,21.278 C138.422,21.226 138.448,21.018 138.448,20.888 C138.448,19.796 137.798,18.47 135.874,18.47 C133.976,18.47 132.78,19.796 132.338,21.278 Z M141.022,23.488 L132,23.488 C131.974,23.618 131.974,23.67 131.974,23.774 C131.974,25.568 133.222,26.816 134.964,26.816 C136.628,26.816 137.694,25.932 138.188,24.97 L140.502,26.244 C139.644,27.908 137.694,29.39 134.886,29.39 C131.74,29.39 129.088,27.258 129.088,23.592 C129.088,18.834 132.494,15.948 135.952,15.948 C139.436,15.948 141.386,18.132 141.386,21.174 C141.386,22.032 141.204,22.916 141.022,23.488 Z" id="Capsule" fill="#0F3C6C"></path>
            <path d="M154.816,10.176 C149.876,10.176 144.858,14.05 144.858,21.096 C144.858,25.932 148.134,29.39 152.84,29.39 C157.208,29.39 159.964,26.842 161.238,23.8 L158.482,22.682 C157.494,24.892 155.752,26.452 153.126,26.452 C149.98,26.452 148.056,24.268 148.056,20.914 C148.056,16.546 150.734,13.114 154.582,13.114 C157.546,13.114 159.054,14.986 159.47,16.988 L162.46,16.078 C161.888,13.088 159.6,10.176 154.816,10.176 Z M169.834,18.652 C167.806,18.652 166.038,20.524 166.038,23.41 C166.038,25.412 167.208,26.686 168.924,26.686 C170.796,26.686 172.72,25.048 172.72,21.902 C172.72,19.9 171.628,18.678 169.834,18.652 Z M175.762,21.798 C175.762,25.984 172.824,29.39 168.768,29.39 C165.206,29.39 163.022,26.764 163.022,23.514 C163.022,19.094 166.142,15.948 170.042,15.948 C173.682,15.948 175.762,18.548 175.762,21.798 Z M188.414,29 L190.078,21.304 C190.182,20.862 190.234,20.316 190.234,19.9 C190.234,17.586 188.778,15.974 186.412,15.974 C185.008,15.974 183.578,16.442 182.668,17.664 C182.772,17.17 182.798,16.494 182.798,16.338 L179.886,16.338 C179.886,16.442 179.86,17.326 179.6,18.522 L177.39,29 L180.38,29 L181.966,21.642 C182.304,20.108 183.292,18.652 185.008,18.652 C186.386,18.652 187.14,19.432 187.14,20.706 C187.14,20.94 187.088,21.226 187.036,21.512 L185.424,29 L188.414,29 Z M203.458,29 L205.122,21.304 C205.226,20.862 205.278,20.316 205.278,19.9 C205.278,17.586 203.822,15.974 201.456,15.974 C200.052,15.974 198.622,16.442 197.712,17.664 C197.816,17.17 197.842,16.494 197.842,16.338 L194.93,16.338 C194.93,16.442 194.904,17.326 194.644,18.522 L192.434,29 L195.424,29 L197.01,21.642 C197.348,20.108 198.336,18.652 200.052,18.652 C201.43,18.652 202.184,19.432 202.184,20.706 C202.184,20.94 202.132,21.226 202.08,21.512 L200.468,29 L203.458,29 Z M210.832,21.278 L216.916,21.278 C216.916,21.226 216.942,21.018 216.942,20.888 C216.942,19.796 216.292,18.47 214.368,18.47 C212.47,18.47 211.274,19.796 210.832,21.278 Z M219.516,23.488 L210.494,23.488 C210.468,23.618 210.468,23.67 210.468,23.774 C210.468,25.568 211.716,26.816 213.458,26.816 C215.122,26.816 216.188,25.932 216.682,24.97 L218.996,26.244 C218.138,27.908 216.188,29.39 213.38,29.39 C210.234,29.39 207.582,27.258 207.582,23.592 C207.582,18.834 210.988,15.948 214.446,15.948 C217.93,15.948 219.88,18.132 219.88,21.174 C219.88,22.032 219.698,22.916 219.516,23.488 Z M234.066,20.082 C233.65,18.158 232.142,15.948 228.684,15.948 C224.888,15.948 221.638,18.964 221.638,23.488 C221.638,26.868 223.952,29.39 227.566,29.39 C230.556,29.39 232.454,27.544 233.39,25.594 L230.894,24.58 C230.348,25.62 229.412,26.686 227.722,26.686 C225.876,26.686 224.628,25.438 224.628,23.436 C224.628,20.264 226.578,18.678 228.476,18.678 C230.192,18.678 231.076,19.77 231.336,20.94 L234.066,20.082 Z M236.526,26.14 C236.526,28.012 237.8,29.156 239.854,29.156 C240.608,29.156 241.128,29 241.362,28.896 L241.856,26.478 C241.544,26.53 241.284,26.556 240.972,26.556 C239.932,26.556 239.594,26.088 239.594,25.49 C239.594,25.334 239.62,25.126 239.672,24.918 L240.92,19.016 L243.416,19.016 L243.988,16.338 L241.466,16.338 L242.324,12.464 L239.594,12.464 L239.204,14.284 C238.918,15.558 238.138,16.338 236.682,16.338 L236.214,16.338 L235.642,19.016 L237.93,19.016 L236.734,24.606 C236.578,25.282 236.526,25.828 236.526,26.14 Z" id="Connect" fill="#0F3C6C"></path>
        </g>
    </g>
</svg>
