<?xml version="1.0" encoding="UTF-8"?>
<svg width="203px" height="48px" viewBox="0 0 203 48" version="1.1" xmlns="http://www.w3.org/2000/svg" xmlns:xlink="http://www.w3.org/1999/xlink">
    <g id="Page-1" stroke="none" stroke-width="1" fill="none" fill-rule="evenodd">
        <g id="capsulerx-logo">
            <path d="M117.127,16.46 C117.127,14.84 116.054,13.872 114.255,13.872 L111.305,13.872 L111.305,18.998 L114.255,18.998 C116.053,18.998 117.127,18.05 117.127,16.461 L117.127,16.46 Z M91.54,14.99 L89.147,21.418 L93.935,21.418 L91.54,14.99 Z" id="Shape"></path>
            <path d="M19.783,20.217 L14.52,25.48 L14.52,14.52 L5.48,14.52 C2.45426045,14.5199998 0.00110428451,16.9722606 0,19.998 L0,20.003 C-1.71468692e-15,23.0295204 2.45347957,25.483 5.48,25.483 L14.517,25.483 L19.78,20.217 L19.783,20.217 Z" id="Shape" fill="#FFD300" fill-rule="nonzero"></path>
            <path d="M19.783,20.217 L25.481,14.519 L25.481,25.479 L34.521,25.479 C37.5475204,25.479 40.001,23.0255204 40.001,19.999 C40.001,16.9724796 37.5475204,14.519 34.521,14.519 L25.49,14.519 L19.79,20.209 L19.783,20.217 Z" id="Shape" fill="#99BFBC" fill-rule="nonzero"></path>
            <path d="M25.48,34.52 L25.48,14.518 L19.783,20.215 L14.519,25.479 L14.519,34.511 C14.519,37.5375204 16.9724796,39.991 19.999,39.991 C23.0255204,39.991 25.479,37.5375204 25.479,34.511 L25.48,34.52 Z" id="Shape" fill="#0F3C6C" fill-rule="nonzero"></path>
            <path d="M19.783,20.217 L25.481,14.519 L25.481,5.48 C25.481,2.45347957 23.0275204,1.85320928e-16 20.001,0 C16.9744796,-1.85320928e-16 14.521,2.45347957 14.521,5.48 L14.521,25.482 L19.791,20.219 L19.783,20.217 Z" id="Shape" fill="#EF4931" fill-rule="nonzero"></path>
            <path d="M151.695,10.38 L148.632,10.38 C148.483988,10.38 148.364,10.4999877 148.364,10.648 L148.364,22.538 C148.364,26.798 151.137,29.55 155.427,29.55 C159.733,29.55 162.517,26.798 162.517,22.54 L162.517,10.647 C162.517002,10.5755741 162.488492,10.5071024 162.437799,10.4567848 C162.387106,10.4064671 162.318424,10.378467 162.247,10.379 L159.159,10.379 C159.087922,10.379 159.019755,10.4072356 158.969495,10.4574954 C158.919236,10.5077551 158.891,10.575922 158.891,10.647 L158.891,22.357 C158.891,24.757 157.661,26.079 155.427,26.079 C153.227,26.079 151.963,24.723 151.963,22.359 L151.963,10.647 C151.963,10.4989877 151.843012,10.379 151.695,10.379 L151.695,10.38 Z M202.121,10.38 L190.849,10.38 C190.777576,10.379467 190.708894,10.4074671 190.658201,10.4577848 C190.607508,10.5081024 190.578998,10.5765741 190.579,10.648 L190.579,28.898 C190.579,29.045 190.699,29.165 190.849,29.165 L202.121,29.165 C202.269,29.165 202.389,29.045 202.389,28.897 L202.389,26.014 C202.389,25.8659877 202.269012,25.746 202.121,25.746 L194.204,25.746 L194.204,21.442 L201.349,21.442 C201.497,21.442 201.617,21.322 201.617,21.175 L201.617,18.37 C201.617,18.2219877 201.497012,18.102 201.349,18.102 L194.204,18.102 L194.204,13.8 L202.121,13.8 C202.269,13.8 202.389,13.68 202.389,13.532 L202.389,10.649 C202.389,10.499 202.269,10.379 202.121,10.379 L202.121,10.38 Z M134.089,26.234 C131.445,26.234 130.334,24.396 130.185,22.822 C130.177535,22.7426247 130.13499,22.670738 130.069,22.626 C130.003039,22.5813078 129.920799,22.5677839 129.844,22.589 L126.961,23.413 C126.834571,23.4496895 126.753033,23.572209 126.768,23.703 C127.078,26.613 129.46,29.553 134.08,29.553 C138.497,29.553 140.81,26.633 140.81,23.753 C140.81,20.949 138.88,18.883 135.653,18.243 L133.033,17.703 C131.79,17.433 131.106,16.693 131.106,15.623 C131.106,14.3 132.368,13.265 133.978,13.265 C136.12,13.265 137.101,14.655 137.291,15.845 C137.303753,15.9216963 137.34895,15.9891722 137.415021,16.0301552 C137.481092,16.0711383 137.561623,16.0816502 137.636,16.059 L140.416,15.185 C140.546,15.145 140.626,15.009 140.596,14.875 C140.366,13.73 139.204,10 133.953,10 C130.386,10 127.483,12.626 127.483,15.853 C127.483,18.605 129.295,20.618 132.329,21.236 L134.902,21.776 C136.3,22.076 137.135,22.902 137.135,23.986 C137.135,25.376 135.967,26.24 134.085,26.24 L134.089,26.234 Z M174.646,10.38 L171.556,10.38 C171.408378,10.3805508 171.288999,10.5003773 171.289,10.648 L171.289,28.898 C171.289,29.045 171.409,29.165 171.557,29.165 L183.011,29.165 C183.159,29.165 183.279,29.045 183.279,28.897 L183.279,25.962 C183.279,25.8139877 183.159012,25.694 183.011,25.694 L174.914,25.694 L174.914,10.648 C174.914,10.4999877 174.794012,10.38 174.646,10.38 L174.646,10.38 Z M68.466,13.438 C71.082,13.438 72.919,14.818 73.506,17.223 C73.524458,17.295288 73.5720048,17.3567163 73.6373569,17.3927073 C73.7027089,17.4286983 73.7800406,17.4360436 73.851,17.413 L76.761,16.443 C76.8933135,16.3977946 76.968639,16.2584641 76.934,16.123 C75.769,11.608 71.794,10 68.464,10 C65.987,10 63.658,10.927 61.908,12.608 C60.008,14.432 59,16.916 59,19.794 C59,26.204 63.77,29.56 68.482,29.56 C73.542,29.56 76.234,26.194 77.002,23.31 C77.0375391,23.1730345 76.9604735,23.0320394 76.826,22.988 L73.996,22.061 C73.9270456,22.0392124 73.8522332,22.045996 73.7883224,22.0798312 C73.7244116,22.1136663 73.6767446,22.1717247 73.656,22.241 C73.386,23.137 72.216,26.064 68.48,26.064 C65.695,26.064 62.7,24.1 62.7,19.794 C62.7,15.434 65.684,13.446 68.456,13.446 L68.466,13.438 Z M85.879,29.164 C85.992,29.164 86.093,29.094 86.131,28.989 L87.765,24.583 L95.115,24.583 L96.775,28.993 C96.8113189,29.1002493 96.9117688,29.1725733 97.025,29.173 L100.402,29.173 C100.500163,29.1732249 100.590594,29.119765 100.637716,29.033652 C100.684838,28.9475391 100.681111,28.8425542 100.628,28.76 L93.538,10.56 C93.4982773,10.4564659 93.3988927,10.3880894 93.288,10.388 L89.708,10.388 C89.597779,10.3883263 89.4988223,10.4556168 89.458,10.558 L82.358,28.805 C82.3261591,28.8877051 82.3369323,28.9807702 82.3868258,29.0540138 C82.4367192,29.1272574 82.5193797,29.1713529 82.608,29.172 L85.878,29.172 L85.879,29.164 Z M91.439,14.762 L93.834,21.19 L89.047,21.19 L91.44,14.762 L91.439,14.762 Z M110.937,29.164 C111.085,29.164 111.205,29.044 111.205,28.896 L111.205,22.036 L114.617,22.036 C118.2,22.036 120.702,19.639 120.702,16.206 C120.702,12.776 118.2,10.379 114.617,10.379 L107.847,10.379 C107.699378,10.3795508 107.579999,10.4993773 107.58,10.647 L107.58,28.897 C107.58,29.044 107.7,29.164 107.85,29.164 L110.94,29.164 L110.937,29.164 Z M111.205,13.644 L114.155,13.644 C115.953,13.644 117.025,14.612 117.025,16.234 C117.025,17.822 115.953,18.77 114.155,18.77 L111.205,18.77 L111.205,13.644 Z" id="Shape" fill="#0F3C6C" fill-rule="nonzero"></path>
            <path d="M65.367,47.165 C67.16,47.165 68.392,46.12 68.81,44.657 L67.853,44.305 C67.534,45.372 66.698,46.175 65.367,46.175 C63.948,46.175 62.595,45.13 62.595,43.095 C62.595,41.06 63.948,40.026 65.367,40.026 C66.643,40.026 67.501,40.686 67.798,41.863 L68.799,41.511 C68.403,40.004 67.149,39.036 65.367,39.036 C63.431,39.036 61.495,40.488 61.495,43.095 C61.495,45.702 63.354,47.165 65.367,47.165 Z M72.435,43.095 C72.435,45.13 73.799,46.175 75.251,46.175 C76.703,46.175 78.067,45.13 78.067,43.095 C78.067,41.06 76.703,40.026 75.251,40.026 C73.799,40.026 72.435,41.06 72.435,43.095 Z M71.335,43.095 C71.335,40.488 73.293,39.036 75.251,39.036 C77.209,39.036 79.167,40.488 79.167,43.095 C79.167,45.702 77.209,47.165 75.251,47.165 C73.293,47.165 71.335,45.702 71.335,43.095 Z M88.7650001,47 L88.7650001,39.201 L87.6870001,39.201 L87.6870001,45.185 L83.7930001,39.201 L82.3520001,39.201 L82.3520001,47 L83.4300001,47 L83.4300001,40.642 L87.6430001,47 L88.7650001,47 Z M98.8580001,47 L98.8580001,39.201 L97.7800001,39.201 L97.7800001,45.185 L93.8860001,39.201 L92.4450001,39.201 L92.4450001,47 L93.5230001,47 L93.5230001,40.642 L97.7360001,47 L98.8580001,47 Z M107.279,47 L107.279,45.999 L103.616,45.999 L103.616,43.612 L106.938,43.612 L106.938,42.6 L103.616,42.6 L103.616,40.202 L107.279,40.202 L107.279,39.201 L102.538,39.201 L102.538,47 L107.279,47 Z M113.951,47.165 C115.744,47.165 116.976,46.12 117.394,44.657 L116.437,44.305 C116.118,45.372 115.282,46.175 113.951,46.175 C112.532,46.175 111.179,45.13 111.179,43.095 C111.179,41.06 112.532,40.026 113.951,40.026 C115.227,40.026 116.085,40.686 116.382,41.863 L117.383,41.511 C116.987,40.004 115.733,39.036 113.951,39.036 C112.015,39.036 110.079,40.488 110.079,43.095 C110.079,45.702 111.938,47.165 113.951,47.165 Z M125.936,40.202 L125.936,39.201 L119.644,39.201 L119.644,40.202 L122.251,40.202 L122.251,47 L123.329,47 L123.329,40.202 L125.936,40.202 Z" id="CONNECT" fill="#99BFBC"></path>
        </g>
    </g>
</svg>
